<?xml version="1.0" encoding="UTF-8" standalone="no"?>
<!-- Generator: Adobe Illustrator 19.0.0, SVG Export Plug-In . SVG Version: 6.00 Build 0)  -->

<svg
   xmlns:dc="http://purl.org/dc/elements/1.1/"
   xmlns:cc="http://creativecommons.org/ns#"
   xmlns:rdf="http://www.w3.org/1999/02/22-rdf-syntax-ns#"
   xmlns:svg="http://www.w3.org/2000/svg"
   xmlns="http://www.w3.org/2000/svg"
   xmlns:sodipodi="http://sodipodi.sourceforge.net/DTD/sodipodi-0.dtd"
   xmlns:inkscape="http://www.inkscape.org/namespaces/inkscape"
   version="1.1"
   id="Capa_1"
   x="0px"
   y="0px"
   viewBox="0 0 512.001 512.001"
   style="enable-background:new 0 0 512.001 512.001;"
   xml:space="preserve"
   sodipodi:docname="hand_down.svg"
   inkscape:version="0.92.3 (2405546, 2018-03-11)"><metadata
   id="metadata49"><rdf:RDF><cc:Work
       rdf:about=""><dc:format>image/svg+xml</dc:format><dc:type
         rdf:resource="http://purl.org/dc/dcmitype/StillImage" /><dc:title /></cc:Work></rdf:RDF></metadata><defs
   id="defs47"><marker
     inkscape:stockid="TriangleOutL"
     orient="auto"
     refY="0.0"
     refX="0.0"
     id="TriangleOutL"
     style="overflow:visible"
     inkscape:isstock="true"><path
       id="path4707"
       d="M 5.77,0.0 L -2.88,5.0 L -2.88,-5.0 L 5.77,0.0 z "
       style="fill-rule:evenodd;stroke:#000000;stroke-width:1pt;stroke-opacity:1;fill:#000000;fill-opacity:1"
       transform="scale(0.8)" /></marker><marker
     inkscape:stockid="Arrow2Lend"
     orient="auto"
     refY="0.0"
     refX="0.0"
     id="Arrow2Lend"
     style="overflow:visible;"
     inkscape:isstock="true"><path
       id="path4586"
       style="fill-rule:evenodd;stroke-width:0.625;stroke-linejoin:round;stroke:#000000;stroke-opacity:1;fill:#000000;fill-opacity:1"
       d="M 8.7185878,4.0337352 L -2.2072895,0.016013256 L 8.7185884,-4.0017078 C 6.9730900,-1.6296469 6.9831476,1.6157441 8.7185878,4.0337352 z "
       transform="scale(1.1) rotate(180) translate(1,0)" /></marker></defs><sodipodi:namedview
   pagecolor="#ffffff"
   bordercolor="#666666"
   borderopacity="1"
   objecttolerance="10"
   gridtolerance="10"
   guidetolerance="10"
   inkscape:pageopacity="0"
   inkscape:pageshadow="2"
   inkscape:window-width="1920"
   inkscape:window-height="1001"
   id="namedview45"
   showgrid="false"
   inkscape:zoom="0.92187324"
   inkscape:cx="-162.03253"
   inkscape:cy="199.4143"
   inkscape:window-x="-9"
   inkscape:window-y="141"
   inkscape:window-maximized="1"
   inkscape:current-layer="Capa_1" />
<path
   style="fill:#FFCC80;"
   d="M416.002,160c-17.673,0-32,14.327-32,32v-21.333c0-17.673-14.327-32-32-32c-17.673,0-32,14.327-32,32  v-21.333c0-17.673-14.327-32-32-32c-17.673,0-32,14.327-32,32V42.667c0-17.673-14.327-32-32-32s-32,14.327-32,32v266.667  l-74.069-37.035c-7.405-3.703-15.571-5.631-23.851-5.632c-16.613,0-30.08,13.467-30.08,30.08v0.128  c-0.017,8,3.154,15.677,8.811,21.333l137.941,137.941c28.983,28.954,68.281,45.207,109.248,45.184l0,0c70.692,0,128-57.308,128-128  V192C448.002,174.327,433.676,160,416.002,160z"
   id="path2" />
<g
   id="g10">
	<path
   style="fill:#FFB74D;"
   d="M266.669,125.653v119.68c0,5.891-4.776,10.667-10.667,10.667V149.333   C255.96,140.268,259.852,131.629,266.669,125.653z"
   id="path4" />
	<path
   style="fill:#FFB74D;"
   d="M330.669,146.987v98.347c0,5.891-4.776,10.667-10.667,10.667v-85.333   C319.96,161.601,323.852,152.962,330.669,146.987z"
   id="path6" />
	<path
   style="fill:#FFB74D;"
   d="M394.669,168.32v77.013c0,5.891-4.776,10.667-10.667,10.667v-64   C383.96,182.934,387.852,174.296,394.669,168.32z"
   id="path8" />
</g>
<path
   d="M320.002,512c-43.823,0.124-85.874-17.291-116.779-48.363L65.282,325.696c-15.941-15.951-15.934-41.804,0.017-57.745  c7.637-7.632,17.986-11.929,28.783-11.951c9.929,0.008,19.72,2.316,28.608,6.741l58.645,29.333V42.667  C181.336,19.103,200.438,0,224.002,0s42.667,19.103,42.667,42.667v69.739c20.403-11.789,46.5-4.807,58.289,15.596  c1.33,2.302,2.442,4.722,3.321,7.231c19.581-13.11,46.081-7.864,59.191,11.716c2.002,2.99,3.618,6.222,4.809,9.617  c19.586-13.102,46.085-7.845,59.186,11.741c4.691,7.012,7.197,15.257,7.203,23.694v181.333  C458.575,449.878,396.547,511.906,320.002,512z M94.082,277.333c-10.769,0.03-19.474,8.785-19.443,19.554  c0.015,5.149,2.065,10.083,5.705,13.726l137.941,137.941c26.923,27.056,63.549,42.219,101.717,42.112  c64.767-0.082,117.251-52.566,117.333-117.333V192c0-11.782-9.551-21.333-21.333-21.333c-11.782,0-21.333,9.551-21.333,21.333  v53.333c0,5.891-4.776,10.667-10.667,10.667c-5.891,0-10.667-4.776-10.667-10.667v-74.667c0-11.782-9.551-21.333-21.333-21.333  c-11.782,0-21.333,9.551-21.333,21.333v74.667c0,5.891-4.776,10.667-10.667,10.667c-5.891,0-10.667-4.776-10.667-10.667v-96  c0-11.782-9.551-21.333-21.333-21.333c-11.782,0-21.333,9.551-21.333,21.333v96c0,5.891-4.776,10.667-10.667,10.667  c-5.891,0-10.667-4.776-10.667-10.667V42.667c0-11.782-9.551-21.333-21.333-21.333c-11.782,0-21.333,9.551-21.333,21.333v266.667  c0,5.891-4.776,10.667-10.667,10.666c-1.659,0-3.295-0.387-4.778-1.13l-74.155-37.035  C107.171,278.894,100.673,277.354,94.082,277.333z"
   id="path12" />
<g
   id="g14">
</g>
<g
   id="g16">
</g>
<g
   id="g18">
</g>
<g
   id="g20">
</g>
<g
   id="g22">
</g>
<g
   id="g24">
</g>
<g
   id="g26">
</g>
<g
   id="g28">
</g>
<g
   id="g30">
</g>
<g
   id="g32">
</g>
<g
   id="g34">
</g>
<g
   id="g36">
</g>
<g
   id="g38">
</g>
<g
   id="g40">
</g>
<g
   id="g42">
</g>
<path
   style="fill:none;stroke:#000000;stroke-width:11.63771629;stroke-linecap:butt;stroke-linejoin:miter;stroke-miterlimit:4;stroke-dasharray:none;stroke-opacity:1;marker-end:url(#TriangleOutL)"
   d="M 88.070443,21.877111 86.779826,164.88167"
   id="path4563"
   inkscape:connector-curvature="0" /></svg>