<?xml version="1.0" encoding="UTF-8" standalone="no"?>
<!-- Generator: Adobe Illustrator 19.0.0, SVG Export Plug-In . SVG Version: 6.00 Build 0)  -->

<svg
   xmlns:dc="http://purl.org/dc/elements/1.1/"
   xmlns:cc="http://creativecommons.org/ns#"
   xmlns:rdf="http://www.w3.org/1999/02/22-rdf-syntax-ns#"
   xmlns:svg="http://www.w3.org/2000/svg"
   xmlns="http://www.w3.org/2000/svg"
   xmlns:sodipodi="http://sodipodi.sourceforge.net/DTD/sodipodi-0.dtd"
   xmlns:inkscape="http://www.inkscape.org/namespaces/inkscape"
   version="1.1"
   id="Capa_1"
   x="0px"
   y="0px"
   viewBox="0 0 512.001 512.001"
   style="enable-background:new 0 0 512.001 512.001;"
   xml:space="preserve"
   sodipodi:docname="turtle_rabbit_dizzy.svg"
   inkscape:version="0.92.3 (2405546, 2018-03-11)"><metadata
   id="metadata55"><rdf:RDF><cc:Work
       rdf:about=""><dc:format>image/svg+xml</dc:format><dc:type
         rdf:resource="http://purl.org/dc/dcmitype/StillImage" /><dc:title></dc:title></cc:Work></rdf:RDF></metadata><defs
   id="defs53" /><sodipodi:namedview
   pagecolor="#ffffff"
   bordercolor="#666666"
   borderopacity="1"
   objecttolerance="10"
   gridtolerance="10"
   guidetolerance="10"
   inkscape:pageopacity="0"
   inkscape:pageshadow="2"
   inkscape:window-width="1920"
   inkscape:window-height="1001"
   id="namedview51"
   showgrid="false"
   inkscape:zoom="0.46093662"
   inkscape:cx="55.322139"
   inkscape:cy="308.06838"
   inkscape:window-x="-9"
   inkscape:window-y="141"
   inkscape:window-maximized="1"
   inkscape:current-layer="Capa_1" />
<path
   style="fill:#afd755;stroke-width:0.3906244"
   d="M 198.63182,83.891657 V 55.45381 c 0,-11.433175 -10.12617,-20.215599 -21.44451,-18.598799 l -11.63944,1.662504 c -6.16991,0.882032 -10.75349,6.166776 -10.75349,12.399591 v 11.054271 c 0,1.772656 1.45664,3.196088 3.22773,3.130464 l -0.0457,4.454296 c -0.0297,2.897263 1.93203,5.437495 4.74296,6.140231 l 5.6789,1.378504 c 1.31523,0.319536 2.28593,1.442576 2.38202,2.792575 0.86641,12.165609 9.25703,69.780363 90.47643,69.780363 68.88779,0 68.88779,-21.91872 68.88779,-21.91872 v -6.26248 z"
   id="path2"
   inkscape:connector-curvature="0" />
<g
   id="g8"
   transform="matrix(0.39062444,0,0,0.39062444,151.86469,-2.1457168)">
	<path
   style="fill:#96be4b"
   d="m 217.753,329.808 -65.798,-48.096 -17.457,5.763 c -8.982,2.965 -15.376,10.94 -16.318,20.353 l -6.473,64.732 h -8.015 c -9.833,0 -18.676,5.986 -22.328,15.117 l -9.985,24.964 h 52.679 c 11.463,0 21.333,-8.091 23.581,-19.332 l 8.51,-42.553 c 10.878,-0.009 46.305,-3.461 61.604,-20.948 z"
   id="path4"
   inkscape:connector-curvature="0" />
	<path
   style="fill:#96be4b"
   d="m 368.221,332.48 v 40.081 h -6.495 c -9.463,0 -18.047,5.55 -21.93,14.18 l -11.655,25.9 h 64.128 c 8.854,0 16.032,-7.178 16.032,-16.032 V 332.48 Z"
   id="path6"
   inkscape:connector-curvature="0" />
</g>
<path
   style="fill:#bee86e;stroke-width:0.3906244"
   d="m 177.18731,36.855403 -5.8746,0.839056 c 7.30859,2.511712 12.70623,9.419519 12.70623,17.759743 v 13.825375 c 0,8.070295 6.54257,14.612472 14.61249,14.612472 v 0 -28.437847 c 3.9e-4,-11.433191 -10.12578,-20.215599 -21.44412,-18.598799 z"
   id="path10"
   inkscape:connector-curvature="0" />
<path
   style="fill:#af6e5a;stroke-width:0.3906244"
   d="m 198.63182,83.891657 c 0,0 3.13123,75.149903 142.96229,41.210493 6.52654,-1.58398 9.38123,-9.06561 5.76482,-14.56286 C 329.67107,83.649081 276.72232,20.883157 198.63182,83.891657 Z"
   id="path12"
   inkscape:connector-curvature="0" />
<path
   style="fill:#965a50;stroke-width:0.3906244"
   d="m 208.80055,76.297144 c -3.34062,2.300776 -6.72889,4.819527 -10.16912,7.594905 0,0 3.13123,75.149901 142.96189,41.210101 5.99375,-1.45469 8.82342,-7.86678 6.45703,-13.16443 C 233.03294,144.09509 212.44508,96.254144 208.80055,76.297144 Z"
   id="path14"
   inkscape:connector-curvature="0" />
<path
   d="M 349.80659,108.92874 C 344.33355,100.60843 335.21637,88.436968 322.86209,77.701824 308.24532,64.999897 292.59573,57.272169 276.35006,54.733498 252.15049,50.953042 227.01614,58.745593 201.56189,77.896752 V 55.45381 c 0,-6.299208 -2.72889,-12.279279 -7.48827,-16.406615 -4.75859,-4.126944 -11.06444,-5.983199 -17.30037,-5.092184 l -11.63943,1.662504 c -7.56445,1.080856 -13.26913,7.658192 -13.26913,15.299591 v 11.054271 c 0,1.642576 0.67618,3.23632 1.85547,4.373032 0.40859,0.393768 0.86367,0.717584 1.34883,0.977352 l -0.0226,2.20468 c -0.0438,4.270319 2.81913,7.976551 6.96248,9.012495 l 5.58163,1.395311 c 0.0926,0.02344 0.16836,0.0953 0.17579,0.167184 0.53906,5.294921 2.41757,14.253889 6.07499,23.520669 4.78398,12.12498 11.41483,22.14997 19.70818,29.83278 l -0.7,7.00077 h -0.48008 c -5.06836,0 -9.55976,3.04062 -11.44217,7.74684 l -3.90039,9.75157 c -0.36093,0.90273 -0.25078,1.92539 0.29414,2.73045 0.54531,0.80508 1.4543,1.28712 2.42617,1.28712 h 20.57771 c 5.85428,0 10.93631,-4.16602 12.08475,-9.90663 l 1.20273,-6.01366 c 8.56288,3.37186 23.33316,7.316 45.5972,7.316 6.2742,0 13.15505,-0.31953 20.64761,-1.04725 l -2.48397,5.5203 c -0.40782,0.90624 -0.32813,1.9582 0.21172,2.79257 0.53984,0.83437 1.46602,1.33906 2.46015,1.33906 h 25.04957 c 5.06913,0 9.19256,-4.12343 9.19256,-9.19217 v -6.7375 c 3.76133,-1.15351 6.4836,-2.28007 8.08905,-3.35078 4.0168,-2.67772 7.82578,-6.96835 11.33359,-12.7617 2.82226,-0.61952 5.67968,-1.27812 8.57537,-1.98086 4.02734,-0.97733 7.20273,-3.73358 8.7117,-7.56248 1.48829,-3.7789 1.04375,-8.06132 -1.19022,-11.45779 z m -6.69374,0.5457 c -12.48201,3.20078 -24.19489,5.57929 -35.07924,7.12695 l -4.37149,-20.850374 5.33749,-3.736312 c 1.32579,-0.927744 1.64806,-2.75468 0.72032,-4.080072 -0.92773,-1.3254 -2.75429,-1.648448 -4.08008,-0.71992 l -5.29021,3.702728 -17.47693,-11.541392 2.89687,-16.415991 c 8.60272,2.695696 19.23825,7.673416 30.51714,16.801534 l -1.03711,0.72616 c -1.32578,0.927746 -1.64805,2.75469 -0.7203,4.080082 0.5699,0.814055 1.47889,1.249999 2.40272,1.249999 0.57969,0 1.16601,-0.17188 1.67734,-0.529688 l 2.27852,-1.594919 c 7.34413,6.608191 14.87497,15.037478 22.22496,25.781215 z m -89.73893,-16.40584 25.87692,-9.062879 18.52691,12.234759 4.42774,21.11989 c -10.30664,1.21406 -19.81912,1.64062 -28.47887,1.26874 -11.95505,-0.51406 -22.32927,-2.55038 -30.99175,-6.05702 z m 22.07106,-32.545663 c 1.42422,0.222656 2.97852,0.51564 4.64609,0.896496 l -3.025,17.142935 -24.14645,8.457032 -10.69687,-24.012871 c 11.27929,-3.338664 22.37536,-4.178512 33.22223,-2.483592 z M 173.59552,79.507288 c -0.25703,-2.52344 -2.09922,-4.636712 -4.58319,-5.2578 l -5.58164,-1.395312 c -1.50234,-0.375384 -2.54022,-1.719136 -2.52422,-3.267575 l 0.0172,-1.68944 c 6.01601,-0.350792 13.04882,-1.207432 17.10037,-3.233208 1.44688,-0.723432 2.03359,-2.483192 1.31016,-3.930464 -0.72344,-1.447264 -2.48203,-2.033976 -3.93086,-1.31016 -2.89101,1.445704 -9.266,2.44844 -17.48864,2.750784 -0.0203,3.92e-4 -0.0738,0.0032 -0.12774,-0.04848 -0.0625,-0.06016 -0.0625,-0.130848 -0.0625,-0.153904 V 50.917458 c 0,-4.744136 3.5414,-8.827727 8.23826,-9.498807 l 11.63944,-1.662504 c 4.55352,-0.652744 9.15741,0.704688 12.63241,3.718352 3.475,3.013271 5.46796,7.380071 5.46796,11.979671 v 28.437847 c 0,0.02384 0.003,0.04688 0.003,0.07032 3.9e-4,0.0172 -0.002,0.0344 -8e-4,0.05152 0.0258,0.619536 0.59414,11.388271 8.55976,23.093723 l -0.78712,0.2625 c -4.5996,1.53319 -7.88357,5.64061 -8.3656,10.46483 l -0.81093,8.10821 C 176.5877,106.95453 173.71662,80.694007 173.59552,79.507288 Z m 33.06753,71.408892 c -0.60196,3.01053 -3.26758,5.19608 -6.33905,5.19608 h -16.24998 l 2.29336,-5.73358 c 0.98711,-2.46836 3.34296,-4.06327 6.00155,-4.06327 h 3.13124 c 1.50548,0 2.76524,-1.14063 2.91523,-2.63828 l 2.52617,-25.25895 c 0.25274,-2.53048 1.975,-4.68437 4.38751,-5.48906 l 2.71053,-0.90352 c 2.4996,2.90077 5.50312,5.78085 9.11639,8.50273 3.85508,2.90351 8.15781,5.41717 12.8703,7.55389 -4.43945,2.86835 -10.17654,3.59453 -13.57263,3.7543 l 0.0844,-0.42109 c 0.31758,-1.58673 -0.71171,-3.13009 -2.29843,-3.44727 -1.58944,-0.31797 -3.13007,0.71173 -3.44725,2.29843 z m 8.11756,-10.70937 0.49337,-2.46717 c 4.3453,-0.0485 14.41522,-0.88477 20.99762,-7.13399 7.46678,2.66132 15.82575,4.48203 25.03121,5.43556 5.07617,0.52576 10.41913,0.78787 16.02029,0.78787 4.94805,0 10.10351,-0.21015 15.44803,-0.61914 v 4.25195 c -4.075,0.13008 -7.80272,2.27892 -9.97655,5.66288 -36.12299,4.04727 -57.61672,-1.6207 -68.01397,-5.91796 z m 90.31394,15.90506 h -20.51834 l 2.69298,-5.98515 c 1.04218,-2.31562 3.35624,-3.81171 5.8953,-3.81171 h 2.5367 c 1.61836,0 2.9297,-1.31133 2.9297,-2.92969 v -7.6996 c 3.20116,-0.32459 6.46599,-0.7164 9.79686,-1.17968 v 18.27342 c -3.9e-4,1.8375 -1.49531,3.33241 -3.3332,3.33241 z m 14.03084,-18.29567 c -0.44728,0.29804 -1.73867,1.02889 -4.83828,2.07264 v -6.26249 c 3.6496,-0.58282 7.3703,-1.24258 11.16483,-1.98437 -2.07031,2.66797 -4.20781,4.76171 -6.32655,6.17422 z m 26.41949,-19.5781 c -0.80078,2.03085 -2.49257,3.49491 -4.64179,4.01679 -30.85425,7.48865 -57.38469,10.17068 -78.85262,7.97264 -17.03319,-1.74454 -30.90698,-6.54998 -41.23665,-14.28201 -15.23397,-11.4035 -18.45233,-26.182392 -19.09958,-30.767136 2.0539,-1.626959 4.10389,-3.168359 6.15116,-4.640617 1.30937,6.689433 4.63827,16.130041 13.00349,24.655823 0.57383,0.58438 1.33203,0.87773 2.0914,0.87773 0.74063,0 1.48164,-0.2789 2.05196,-0.83828 1.15468,-1.13281 1.17265,-2.98789 0.0394,-4.14297 -8.50898,-8.672246 -11.09179,-18.401541 -11.85313,-24.221446 7.87852,-5.163672 15.69687,-9.170679 23.43396,-12.011695 l 11.44335,25.688623 -10.6746,19.569898 c -1.19844,-0.62617 -2.36368,-1.28085 -3.48164,-1.9742 -1.37539,-0.85314 -3.18124,-0.43009 -4.03396,0.9449 -0.85273,1.37501 -0.43009,3.18125 0.94492,4.03399 12.38824,7.68591 28.79331,11.52888 49.07453,11.52888 18.73864,0 40.7972,-3.29217 66.03271,-9.85623 0.17657,1.13945 0.0504,2.31992 -0.39296,3.44531 z"
   id="path16"
   inkscape:connector-curvature="0"
   style="stroke-width:0.3906244" />
<path
   d="m 173.58224,46.518282 c -1.61836,0 -2.92968,1.311712 -2.92968,2.929672 v 3.131256 c 0,1.617968 1.31132,2.92968 2.92968,2.92968 1.61836,0 2.92968,-1.311712 2.92968,-2.92968 v -3.131256 c 0,-1.61796 -1.31171,-2.929672 -2.92968,-2.929672 z"
   id="path18"
   inkscape:connector-curvature="0"
   style="stroke-width:0.3906244" />
<g
   id="g20"
   transform="matrix(0.48828059,0,0,0.48828059,128.00024,-4.124242)">
</g>
<g
   id="g22"
   transform="matrix(0.48828059,0,0,0.48828059,128.00024,-4.124242)">
</g>
<g
   id="g24"
   transform="matrix(0.48828059,0,0,0.48828059,128.00024,-4.124242)">
</g>
<g
   id="g26"
   transform="matrix(0.48828059,0,0,0.48828059,128.00024,-4.124242)">
</g>
<g
   id="g28"
   transform="matrix(0.48828059,0,0,0.48828059,128.00024,-4.124242)">
</g>
<g
   id="g30"
   transform="matrix(0.48828059,0,0,0.48828059,128.00024,-4.124242)">
</g>
<g
   id="g32"
   transform="matrix(0.48828059,0,0,0.48828059,128.00024,-4.124242)">
</g>
<g
   id="g34"
   transform="matrix(0.48828059,0,0,0.48828059,128.00024,-4.124242)">
</g>
<g
   id="g36"
   transform="matrix(0.48828059,0,0,0.48828059,128.00024,-4.124242)">
</g>
<g
   id="g38"
   transform="matrix(0.48828059,0,0,0.48828059,128.00024,-4.124242)">
</g>
<g
   id="g40"
   transform="matrix(0.48828059,0,0,0.48828059,128.00024,-4.124242)">
</g>
<g
   id="g42"
   transform="matrix(0.48828059,0,0,0.48828059,128.00024,-4.124242)">
</g>
<g
   id="g44"
   transform="matrix(0.48828059,0,0,0.48828059,128.00024,-4.124242)">
</g>
<g
   id="g46"
   transform="matrix(0.48828059,0,0,0.48828059,128.00024,-4.124242)">
</g>
<g
   id="g48"
   transform="matrix(0.48828059,0,0,0.48828059,128.00024,-4.124242)">
</g>
<g
   id="g4729"
   transform="matrix(0.39073072,0,0,0.39073072,39.093986,285.91242)"><circle
     id="circle4632"
     r="248.395"
     cy="133.83406"
     cx="211.62775"
     style="fill:#f4d44e" /><path
     id="path4634"
     d="M 130.80275,323.90706 C -25.873249,233.45006 -35.387249,11.939064 109.51875,-92.606936 63.644751,-71.967936 23.585751,-37.254936 -3.4872494,9.6370641 -72.079249,128.44206 -31.373249,280.35706 87.430751,348.94806 c 87.429999,50.477 192.787999,41.758 269.676999,-13.715 -70.353,31.653 -154.393,30.193 -226.305,-11.326 z"
     style="fill:#e8c842"
     inkscape:connector-curvature="0" /><path
     id="path4636"
     d="m 243.45175,195.27606 h -63.648 c -0.961,5.151 -0.388,6.292 -0.559,34.049 22.565,1.358 26.969,11.174 41.616,5.235 7.219,-2.927 15.004,-4.744 23.15,-5.235 -0.172,-28.007 0.4,-28.905 -0.559,-34.049 z"
     style="fill:#656566"
     inkscape:connector-curvature="0" /><path
     id="path4638"
     d="m 204.62475,235.18106 c -0.042,-0.676 -0.071,-1.355 -0.071,-2.042 v -5.818 c 0.004,0 0.007,0.001 0.011,0.001 0.132,-25.802 -0.39,-27.023 0.548,-32.047 h -25.308 c -0.961,5.151 -0.388,6.292 -0.559,34.049 12.345,0.745 19.253,4.016 25.379,5.857 z"
     style="fill:#4f4f51"
     inkscape:connector-curvature="0" /><path
     id="path4640"
     d="m 244.01075,233.14006 v -5.816 c -8.145,0.491 -15.931,2.308 -23.15,5.235 -14.644,5.938 -19.062,-3.877 -41.616,-5.235 v 5.818 c 0,17.884 14.499,32.383 32.383,32.383 17.884,-10e-4 32.383,-14.501 32.383,-32.385 z"
     style="fill:#ed694a"
     inkscape:connector-curvature="0" /><path
     id="path4642"
     d="m 204.55375,233.15706 c -6.111,-1.845 -13.014,-5.094 -25.309,-5.835 v 5.818 c 0,17.884 14.499,32.383 32.383,32.383 4.49,0 8.766,-0.915 12.655,-2.567 -11.591,-4.926 -19.722,-16.412 -19.729,-29.799 z"
     style="fill:#d8553a"
     inkscape:connector-curvature="0" /><path
     id="path4644"
     d="m 179.49575,197.28006 h 64.265 c -1.958,-16.011 -15.592,-28.414 -32.132,-28.414 -16.541,-0.001 -30.175,12.402 -32.133,28.414 z"
     style="fill:#eae9e8"
     inkscape:connector-curvature="0" /><path
     id="path4646"
     d="m 205.11175,195.27606 h 0.009 c 2.008,-10.767 9.337,-19.659 19.156,-23.838 -3.886,-1.653 -8.159,-2.572 -12.65,-2.572 -16.54,0 -30.174,12.403 -32.132,28.414 h 25.299 c 0.081,-0.647 0.184,-1.287 0.318,-2.004 z"
     style="fill:#dbdbdb"
     inkscape:connector-curvature="0" /><path
     id="path4648"
     d="m 346.25575,67.356064 c 2.868,-2.998 2.762,-7.754 -0.236,-10.621 -15.706,-15.021 -35.615,-23.072 -56.207,-22.643 -4.148,0.084 -7.442,3.516 -7.357,7.663 0.083,4.12 3.478,7.434 7.663,7.357 16.49,-0.32 32.702,6.227 45.515,18.48 2.997,2.866 7.753,2.765 10.622,-0.236 z"
     inkscape:connector-curvature="0" /><path
     id="path4650"
     d="m 133.13575,49.112064 c 0.053,0.001 0.104,0.002 0.156,0.002 4.078,0 7.424,-3.263 7.507,-7.359 0.085,-4.149 -3.209,-7.579 -7.357,-7.663 -20.569,-0.425 -40.500999,7.622 -56.206999,22.643 -2.998,2.867 -3.105,7.622 -0.236,10.621 2.864,2.997 7.62,3.106 10.621,0.236 12.498999,-11.954 28.188999,-18.492 44.300999,-18.492 0.407,0 0.811,0.004 1.215,0.012 z"
     inkscape:connector-curvature="0" /><path
     id="path4652"
     d="m 194.19275,166.70106 c -11.586,5.646 -19.647,16.449 -21.845,28.941 -0.877,4.975 -0.627,37.213 -0.616,38.826 0,21.998 17.897,39.895 39.895,39.895 21.998,0 39.895,-17.897 39.895,-39.895 0.001,-0.101 0.131,-33.344 -0.307,-36.772 -3.326,-27.223 -32.637,-42.912 -57.022,-30.995 z m 39.486,24.395 h -44.103 c 9.108,-17.459 34.684,-18.055 44.103,0 z m -44.81,53.385 c -1.028,-2.332 -1.692,-4.793 -1.966,-7.339 4.335,0.805 8.577,2.044 12.675,3.706 7.772,3.151 16.333,3.151 24.105,0 4.098,-1.662 8.337,-2.9 12.669,-3.704 -2.674,24.991 -37.149,30.687 -47.483,7.337 z m 47.63,-22.583 c -18.453,2.74 -21.2,9.111 -31.275,5.027 -5.946,-2.411 -12.134,-4.089 -18.467,-5.029 v -15.776 h 49.741 v 15.778 z"
     inkscape:connector-curvature="0" /><path
     id="path4654"
     d="m 321.12275,89.525064 c -2.935,-2.933 -7.691,-2.933 -10.624,0 l -14.184,14.183996 -14.184,-14.183996 c -2.934,-2.932 -7.69,-2.934 -10.624,0 -2.934,2.935 -2.934,7.691 0,10.623996 l 14.184,14.184 -14.184,14.184 c -2.934,2.935 -2.934,7.691 0,10.624 2.936,2.934 7.691,2.933 10.624,0 l 14.184,-14.184 c 13.268,12.369 14.227,16.384 19.496,16.384 6.635,0 10.057,-8.078 5.313,-12.825 l -14.184,-14.184 14.184,-14.184 c 2.932,-2.932996 2.932,-7.687996 -10e-4,-10.622996 z"
     inkscape:connector-curvature="0" /><path
     id="path4656"
     d="m 151.74875,89.525064 c -2.935,-2.933 -7.691,-2.933 -10.624,0 l -14.184,14.183996 -14.184,-14.183996 c -2.934,-2.932 -7.69,-2.934 -10.624,0 -2.933999,2.935 -2.933999,7.691 0,10.623996 l 14.184,14.184 -14.184,14.184 c -2.933999,2.935 -2.933999,7.691 0,10.624 2.936,2.934 7.691,2.933 10.624,0 l 14.184,-14.184 c 13.268,12.369 14.227,16.384 19.496,16.384 6.635,0 10.057,-8.078 5.313,-12.825 l -14.184,-14.184 14.184,-14.184 c 2.933,-2.932996 2.933,-7.687996 -0.001,-10.622996 z"
     inkscape:connector-curvature="0" /><path
     id="path4658"
     d="m 60.907751,-72.992936 c -3.356,2.44 -4.099,7.138 -1.659,10.494 2.441,3.355 7.139,4.098 10.494,1.659 57.468999,-41.783004 131.376999,-57.520004 204.228999,-38.001 187.406,50.217 240.053,289.823996 95.323,414.818996 -3.14,2.711 -3.487,7.455 -0.774,10.595 2.709,3.138 7.455,3.489 10.595,0.774 92.692,-80.052 115.458,-215.248 54.131,-321.4669959 C 357.45975,-125.38894 184.54175,-162.87394 60.907751,-72.992936 Z"
     inkscape:connector-curvature="0" /><path
     id="path4660"
     d="m 43.727751,-38.956936 c 2.978,-2.89 3.05,-7.645 0.16,-10.622 -2.889,-2.977 -7.644,-3.05 -10.622,-0.16 -40.1640004,38.968 -66.759,91.095 -74.889,146.779 -22.516,154.213996 97.222,292.806996 253.667999,292.806996 49.817,-10e-4 97.322,-14.651 138.079,-40.831 3.49,-2.242 4.502,-6.89 2.261,-10.381 -2.242,-3.49 -6.888,-4.502 -10.381,-2.261 -38.292,24.6 -82.998,38.443 -129.983,38.441 -146.586999,-0.007 -260.072999,-129.745 -238.778999,-275.604996 7.655,-52.424 32.6869996,-101.4929999 70.486,-138.167 z"
     inkscape:connector-curvature="0" /><g
     id="g4662">
</g><g
     id="g4664">
</g><g
     id="g4666">
</g><g
     id="g4668">
</g><g
     id="g4670">
</g><g
     id="g4672">
</g><g
     id="g4674">
</g><g
     id="g4676">
</g><g
     id="g4678">
</g><g
     id="g4680">
</g><g
     id="g4682">
</g><g
     id="g4684">
</g><g
     id="g4686">
</g><g
     id="g4688">
</g><g
     id="g4690">
</g></g><g
   id="g4802"
   transform="matrix(0.39062455,0,0,0.39062455,289.9896,233.87411)"><path
     id="path4761"
     d="m 68.519531,357.25 c -29.058593,-11.40625 -60.941406,9.28516 -60.941406,39.64062 0,41.51172 55.414063,58.57422 80.347656,24.81641 C 78.664062,405.95312 70.523438,386.92187 68.519531,357.25 Z m 0,0"
     inkscape:connector-curvature="0"
     style="fill:#d1d0cf" /><path
     id="path4763"
     d="m 27.582031,396.89062 c 0,-20.29687 14.640625,-37.28515 34.273438,-41.66796 -27.621094,-6.1836 -54.277344,14.02343 -54.277344,41.66796 0,27.45313 26.4375,47.88282 54.277344,41.67188 C 42.21875,434.17578 27.582031,417.19141 27.582031,396.89062 Z m 0,0"
     inkscape:connector-curvature="0"
     style="fill:#afafaf" /><path
     id="path4765"
     d="m 408.30859,306.14062 c 42.3086,6.75 69.76953,-18.4375 89.27344,-37.9414 20.92188,-20.92188 -9.15234,-18.30469 -36.60937,-60.80078 -19.57422,-30.29297 -48.72657,-31.81641 -63.84766,-30.19141 -4.81641,0.51563 -8.79297,-3.73047 -8.00781,-8.50781 4.625,-28.17188 13.77343,-107.027345 -19.92188,-148.359376 -40.65234,-49.863282 -93.51562,51.441406 -29.73437,174.882816 3.04687,5.90234 3.30078,12.85546 0.71484,18.97656 -4.00391,9.46484 -12.53516,22.99219 -30.39062,32.95703 -30.39844,16.96484 -89.9961,-55.625 -168.33204,-16.22656 -84.617182,42.55859 -81.136714,115.80468 -69.332026,160.0625 7.914062,29.6914 31.109376,58.72656 45.515626,74.625 7.17578,7.91406 17.35156,12.42968 28.03515,12.42968 h 166.70704 c 19.20312,0 7.34375,-45.3789 -27.27344,-45.3789 42.04687,0 52.10937,-25.25781 52.10937,-25.25781 -0.39453,-0.67188 8.70703,15.39843 13.06641,20.4414 10.64453,12.32422 9.36328,22.91797 9.36328,36.46875 0,7.58203 6.14453,13.72656 13.72656,13.72656 h 51.90235 c 6.5664,0 11.60937,-5.91406 10.46484,-12.3789 -8.875,-50.29688 -70.65234,-51.00781 -42.10156,-85.02735 22.05469,-26.27734 15.14453,-54.23437 9.48828,-67.92578 -1.43359,-3.46484 1.48047,-7.16406 5.18359,-6.57422 z m 0,0"
     inkscape:connector-curvature="0"
     style="fill:#e4e3e1" /><path
     id="path4767"
     d="m 307.78906,248.10937 c 8.47656,2.24219 15.83594,2.48438 22,-0.95312 17.85547,-9.96484 26.38672,-23.49219 30.38672,-32.95703 2.58985,-6.1211 2.33594,-13.07422 -0.71484,-18.97656 C 312.37891,104.10156 328.86328,25.058594 357.07031,9.960938 319.33984,-9.53125 281.90234,83.824219 339.46094,195.22266 c 3.05078,5.90234 3.30078,12.85546 0.71484,18.97656 -7.73437,18.29687 -23.80859,30.32812 -32.38672,33.91015 z m 0,0"
     inkscape:connector-curvature="0"
     style="fill:#d1d0cf" /><path
     id="path4769"
     d="m 137.63672,465.61719 c -14.40625,-15.89844 -37.59766,-44.9336 -45.515626,-74.625 -11.800782,-44.25782 -15.285156,-117.50391 69.335936,-160.0625 13.48828,-6.78516 26.42188,-10.2461 38.74609,-11.41797 -18.10156,-1.65235 -37.75,0.85547 -58.74609,11.41797 -84.621092,42.55859 -81.136718,115.80468 -69.335936,160.0625 7.917968,29.6914 31.109376,58.72656 45.515626,74.625 7.17578,7.91406 17.35156,12.42968 28.03515,12.42968 h 20.00391 c -10.68359,0 -20.86328,-4.51562 -28.03906,-12.42968 z m 0,0"
     inkscape:connector-curvature="0"
     style="fill:#d1d0cf" /><path
     id="path4771"
     d="m 337.21484,71.523438 c -2.46875,35.191402 8.29297,69.761722 21.63672,97.359372 7.875,16.28516 22.58985,17.11719 32.46485,6.33594 -1.6836,-1.60547 -2.61719,-3.98438 -2.19922,-6.52344 4.625,-28.17187 13.77344,-107.023435 -19.92188,-148.355466 0,0 -28.43359,0.574218 -31.98047,51.183594 z m 0,0"
     inkscape:connector-curvature="0"
     style="fill:#f45858" /><path
     id="path4773"
     d="m 385.53906,178.23047 c -2.80078,-2.65625 -5.0039,-5.8711 -6.68359,-9.34766 -29.63672,-61.29297 -27.60156,-121.44531 -4.64844,-141.640622 -1.55859,-2.394532 -3.21875,-4.703126 -5.01172,-6.902344 0,0 -28.43359,0.574218 -31.98047,51.183594 -2.46875,35.191402 8.29688,69.761722 21.64063,97.359372 7.05469,14.58985 19.36328,16.15235 27.97265,10.27735 -0.83203,-0.53907 -1.28906,-0.92969 -1.28906,-0.92969 z m 0,0"
     inkscape:connector-curvature="0"
     style="fill:#dd4040" /><path
     id="path4775"
     d="m 440.26172,232.05469 c 0,5.8789 -4.76953,10.64453 -10.64844,10.64453 -5.8789,0 -10.64453,-4.76563 -10.64453,-10.64453 0,-5.87891 4.76562,-10.64844 10.64453,-10.64844 5.87891,0 10.64844,4.76953 10.64844,10.64844 z m 0,0"
     inkscape:connector-curvature="0"
     style="fill:#525468" /><path
     id="path4777"
     d="m 83.9375,434.36719 c 9.628906,15.12109 20.4375,28.03906 28.0625,36.45312 8.57813,9.46875 20.82422,14.89453 33.59375,14.89453 h 50.46094 c 4.14453,0 7.5,-3.35547 7.5,-7.5 0,-4.14062 -3.35547,-7.5 -7.5,-7.5 h -50.46094 c -8.54297,0 -16.73828,-3.63281 -22.48047,-9.96484 -37.804686,-41.71484 -47.167968,-71.80469 -49.253905,-103.81641 -0.03906,-0.58593 -0.160156,-1.14843 -0.328125,-1.69531 -2.703125,-41.35156 11.285156,-87.29687 71.21484,-117.44141 76.0586,-38.25 132.35938,36.32032 168.61719,16.07813 19.66016,-10.97266 29.14453,-25.95313 33.64063,-36.58594 3.47265,-8.20703 3.12109,-17.4414 -0.96094,-25.33984 -44.23047,-85.60938 -30.08985,-159.195314 -6.9375,-174.375001 5.1289,-3.367188 10.43359,-3.355469 15.83594,-0.02734 -34.14063,20.09375 -33.23438,92.074211 -2.91797,154.765621 2.17969,4.51172 4.96094,8.39062 8.27344,11.52734 3.00781,2.85157 7.7539,2.72266 10.60546,-0.28125 2.85157,-3.00781 2.72266,-7.75781 -0.28515,-10.60547 -1.98828,-1.88671 -3.70313,-4.29687 -5.08985,-7.16796 C 334,100.58594 340.35156,38.132812 366,28.8125 c 9.96094,13.953125 16.32813,33.328125 18.92969,57.71875 0.4375,4.117188 4.14453,7.09375 8.2539,6.660156 4.11719,-0.4375 7.10157,-4.132812 6.66407,-8.25 C 396.70313,55.464844 388.32031,32.195312 374.92969,15.769531 361.74609,-0.402344 345.28125,-4.414062 330.87891,5.027344 c -31.76953,20.835937 -44.92578,103.296876 1.83984,193.804686 2.02734,3.92578 2.19922,8.52344 0.46875,12.61328 -3.57812,8.46875 -11.19531,20.4336 -27.13672,29.32813 -8.64062,4.82422 -23.98047,-1.78516 -41.74219,-9.44141 -31.83984,-13.72266 -75.4414,-32.51562 -126.30078,-6.9375 -64.156248,32.26953 -79.968748,81.57813 -79.636716,123.04688 -2.660156,-0.4336 -5.359375,-0.66407 -8.089844,-0.66407 C 22.558594,346.77734 0,369.33594 0,397.0625 c 0,27.72266 22.558594,50.28125 50.28125,50.28125 12.527344,0 24.503906,-4.73047 33.65625,-12.97656 z M 15,397.0625 c 0,-19.45703 15.828125,-35.28125 35.28125,-35.28125 3.042969,0 6.035156,0.38672 8.945312,1.14844 2.128907,21.08984 7.242188,39.96093 16.894532,58.13672 -6.636719,7.1289 -16.003906,11.27343 -25.839844,11.27343 C 30.828125,432.33984 15,416.51562 15,397.0625 Z m 0,0"
     inkscape:connector-curvature="0" /><path
     id="path4779"
     d="m 447.67969,232.22266 c 0,-10.00782 -8.14063,-18.14844 -18.14453,-18.14844 -10.00782,0 -18.14844,8.14062 -18.14844,18.14844 0,10.00781 8.14062,18.14843 18.14844,18.14843 10.0039,0 18.14453,-8.14062 18.14453,-18.14843 z m -21.29297,0 c 0,-1.73438 1.41406,-3.14454 3.14844,-3.14454 1.73437,0 3.14453,1.41016 3.14453,3.14454 0,1.73437 -1.41016,3.14453 -3.14453,3.14453 -1.73438,0 -3.14844,-1.41016 -3.14844,-3.14453 z m 0,0"
     inkscape:connector-curvature="0" /><path
     id="path4781"
     d="m 467.19531,203.5 c -21.5625,-33.37109 -53.46094,-35.41016 -70.72265,-33.60938 1.84765,-11.29687 4.14453,-28.90234 4.66797,-48.95703 0.10937,-4.14062 -3.16016,-7.58593 -7.30079,-7.6914 -0.0664,-0.004 -0.13281,-0.004 -0.19921,-0.004 -4.05079,0 -7.38672,3.23047 -7.4961,7.30469 -0.5039,19.3164 -2.73047,36.28125 -4.50781,47.10547 -1.58985,9.67187 6.45312,18.22656 16.20703,17.18359 13.77344,-1.47656 39.45703,0.043 56.75,26.80859 12.11328,18.75 24.94141,29.35938 33.42969,36.38282 3.64062,3.01172 8.6289,7.14062 8.97656,8.64453 -0.17969,3.20312 -20.33594,22.37109 -34.40625,31.08203 -8.79297,-0.9375 -16.63672,-6.66016 -16.72266,-6.72266 -3.30859,-2.46875 -7.99609,-1.79297 -10.48047,1.51172 -2.48437,3.3125 -1.8164,8.01563 1.4961,10.5 0.21484,0.16406 2.47265,1.83203 6.0625,3.75 -10,3.04297 -21.07422,4.10547 -33.53516,2.11328 -9.47265,-1.5 -16.96875,7.97266 -13.30078,16.85157 5.20703,12.59765 11.05469,37.17968 -8.29687,60.23437 -20.58985,24.53125 -2.32422,38.62109 10.86328,49.375 12.16797,9.92578 25.95703,21.17188 29.59765,41.77734 0.32422,1.85938 -1.16406,3.57422 -3.08203,3.57422 h -51.90234 c -3.43359,0 -6.22656,-2.79297 -6.22656,-6.22656 v -12.15625 c 0,-10.83594 -4.00782,-21.25 -11.29297,-29.33203 -13.96875,-15.50391 -19.4336,-36.71484 -19.4336,-57.87891 0,-4.14453 -3.35546,-7.5 -7.5,-7.5 -4.14062,0 -7.5,3.35547 -7.5,7.5 0,17.14063 3.08204,31.01953 7.47657,42.10157 -3.54297,5.42578 -14.91016,18.11328 -43.78907,18.11328 -39.92578,0 -43.5039,0.80859 -52.59765,-2.75391 -10.27735,-4.03125 -11.46485,-10.39062 -11.46485,-14.82422 0,-4.83203 6.79297,-10.71875 13.98438,-16.94531 17.33984,-15.01953 43.53906,-37.71484 7.13281,-81.17969 -2.66015,-3.17578 -7.39062,-3.59375 -10.5664,-0.93359 -3.17579,2.66015 -3.59375,7.39062 -0.9336,10.5664 26.9336,32.15625 11.92578,45.15235 -5.45312,60.20704 -9.42188,8.16015 -19.16407,16.59765 -19.16407,28.28515 0,25.41016 26.07813,32.42188 39.95313,32.57813 h 39.10937 c 19,0 28.9375,17.40234 28.9375,26.73047 0,1.83593 -0.38281,2.99609 -0.71484,3.42968 -0.043,0.0547 -0.16797,0.21875 -0.94922,0.21875 h -81.24609 c -4.14063,0 -7.5,3.35938 -7.5,7.5 0,4.14453 3.35937,7.5 7.5,7.5 h 81.24609 c 9.44531,0 16.66797,-6.95312 16.66797,-18.64453 0,-9.9375 -5.32031,-22.44922 -15.34375,-31.17187 10.61719,-3.71094 17.82031,-9.17188 22.54297,-14.09766 2.78906,4.44141 5.69531,8.17188 8.46094,11.24219 4.79687,5.32031 7.4375,12.17187 7.4375,19.28906 v 12.15625 c 0,11.70313 9.51953,21.22656 21.22656,21.22656 h 51.90234 c 11.25781,0 19.79688,-10.15234 17.85156,-21.17968 -4.60546,-26.10157 -22.10546,-40.375 -34.88671,-50.79688 -15.1211,-12.33594 -19.03516,-15.97656 -8.85547,-28.10547 22.36718,-26.65234 18.17968,-54.67187 12.32422,-71.29687 45.45312,5.07422 75.03906,-24.52735 91.17578,-40.66407 4.45312,-4.45312 9.51953,-10.48437 9.17968,-17.6914 -0.74218,-15.75 -23.35156,-19.30078 -44.78906,-52.48047 z m 0,0"
     inkscape:connector-curvature="0" /></g></svg>